<mxfile host="app.diagrams.net" modified="2023-09-24T15:24:07.059Z" agent="Mozilla/5.0 (Windows NT 10.0; Win64; x64; rv:109.0) Gecko/20100101 Firefox/117.0" etag="0w_ZJ7bu7e_07Hj4vcNd" version="21.5.2" type="device">
  <diagram name="Page-1" id="58cdce13-f638-feb5-8d6f-7d28b1aa9fa0">
    <mxGraphModel dx="1434" dy="701" grid="1" gridSize="10" guides="1" tooltips="1" connect="1" arrows="1" fold="1" page="1" pageScale="1" pageWidth="1100" pageHeight="850" background="none" math="0" shadow="0">
      <root>
        <mxCell id="0" />
        <mxCell id="1" parent="0" />
        <mxCell id="7Rwx5MBi2bmrYGt2QzQ_-12" style="edgeStyle=orthogonalEdgeStyle;rounded=0;orthogonalLoop=1;jettySize=auto;html=1;exitX=0.75;exitY=0;exitDx=0;exitDy=0;entryX=0.25;entryY=0;entryDx=0;entryDy=0;" parent="1" source="382b91b5511bd0f7-6" target="7Rwx5MBi2bmrYGt2QzQ_-5" edge="1">
          <mxGeometry relative="1" as="geometry">
            <Array as="points">
              <mxPoint x="590" y="270" />
              <mxPoint x="750" y="270" />
            </Array>
          </mxGeometry>
        </mxCell>
        <mxCell id="7Rwx5MBi2bmrYGt2QzQ_-24" style="edgeStyle=orthogonalEdgeStyle;rounded=0;orthogonalLoop=1;jettySize=auto;html=1;exitX=0.25;exitY=0;exitDx=0;exitDy=0;entryX=0.75;entryY=0;entryDx=0;entryDy=0;" parent="1" source="382b91b5511bd0f7-6" target="7Rwx5MBi2bmrYGt2QzQ_-4" edge="1">
          <mxGeometry relative="1" as="geometry" />
        </mxCell>
        <mxCell id="382b91b5511bd0f7-6" value="SignInScreen" style="rounded=1;whiteSpace=wrap;html=1;arcSize=24;fillColor=#FFFFFF;strokeColor=default;shadow=0;comic=0;labelBackgroundColor=none;fontFamily=Verdana;fontSize=12;fontColor=#000000;align=center;" parent="1" vertex="1">
          <mxGeometry x="500" y="298" width="120" height="60" as="geometry" />
        </mxCell>
        <mxCell id="7Rwx5MBi2bmrYGt2QzQ_-14" style="edgeStyle=orthogonalEdgeStyle;rounded=0;orthogonalLoop=1;jettySize=auto;html=1;exitX=0.25;exitY=1;exitDx=0;exitDy=0;entryX=0.5;entryY=0;entryDx=0;entryDy=0;" parent="1" source="7Rwx5MBi2bmrYGt2QzQ_-3" target="7Rwx5MBi2bmrYGt2QzQ_-4" edge="1">
          <mxGeometry relative="1" as="geometry">
            <Array as="points">
              <mxPoint x="530" y="160" />
              <mxPoint x="350" y="160" />
            </Array>
          </mxGeometry>
        </mxCell>
        <mxCell id="7Rwx5MBi2bmrYGt2QzQ_-15" style="edgeStyle=orthogonalEdgeStyle;rounded=0;orthogonalLoop=1;jettySize=auto;html=1;exitX=0.5;exitY=1;exitDx=0;exitDy=0;entryX=0.5;entryY=0;entryDx=0;entryDy=0;" parent="1" source="7Rwx5MBi2bmrYGt2QzQ_-3" target="382b91b5511bd0f7-6" edge="1">
          <mxGeometry relative="1" as="geometry" />
        </mxCell>
        <mxCell id="7Rwx5MBi2bmrYGt2QzQ_-16" style="edgeStyle=orthogonalEdgeStyle;rounded=0;orthogonalLoop=1;jettySize=auto;html=1;exitX=0.75;exitY=1;exitDx=0;exitDy=0;entryX=0.5;entryY=0;entryDx=0;entryDy=0;" parent="1" source="7Rwx5MBi2bmrYGt2QzQ_-3" target="7Rwx5MBi2bmrYGt2QzQ_-5" edge="1">
          <mxGeometry relative="1" as="geometry">
            <Array as="points">
              <mxPoint x="590" y="160" />
              <mxPoint x="780" y="160" />
            </Array>
          </mxGeometry>
        </mxCell>
        <mxCell id="7Rwx5MBi2bmrYGt2QzQ_-3" value="App" style="rounded=1;whiteSpace=wrap;html=1;arcSize=24;fillColor=#FFFFFF;strokeColor=default;shadow=0;comic=0;labelBackgroundColor=none;fontFamily=Verdana;fontSize=12;fontColor=#000000;align=center;" parent="1" vertex="1">
          <mxGeometry x="500" y="40" width="120" height="60" as="geometry" />
        </mxCell>
        <mxCell id="7Rwx5MBi2bmrYGt2QzQ_-27" style="edgeStyle=orthogonalEdgeStyle;rounded=0;orthogonalLoop=1;jettySize=auto;html=1;exitX=0.25;exitY=0;exitDx=0;exitDy=0;entryX=0.5;entryY=0;entryDx=0;entryDy=0;" parent="1" source="7Rwx5MBi2bmrYGt2QzQ_-4" target="7Rwx5MBi2bmrYGt2QzQ_-6" edge="1">
          <mxGeometry relative="1" as="geometry" />
        </mxCell>
        <mxCell id="7Rwx5MBi2bmrYGt2QzQ_-4" value="MainScreen" style="rounded=1;whiteSpace=wrap;html=1;arcSize=24;fillColor=#FFFFFF;strokeColor=default;shadow=0;comic=0;labelBackgroundColor=none;fontFamily=Verdana;fontSize=12;fontColor=#000000;align=center;" parent="1" vertex="1">
          <mxGeometry x="290" y="290" width="120" height="60" as="geometry" />
        </mxCell>
        <mxCell id="7Rwx5MBi2bmrYGt2QzQ_-13" style="edgeStyle=orthogonalEdgeStyle;rounded=0;orthogonalLoop=1;jettySize=auto;html=1;exitX=0.25;exitY=1;exitDx=0;exitDy=0;entryX=0.75;entryY=1;entryDx=0;entryDy=0;" parent="1" source="7Rwx5MBi2bmrYGt2QzQ_-5" target="7Rwx5MBi2bmrYGt2QzQ_-4" edge="1">
          <mxGeometry relative="1" as="geometry" />
        </mxCell>
        <mxCell id="7Rwx5MBi2bmrYGt2QzQ_-5" value="UnverifiedScreen" style="rounded=1;whiteSpace=wrap;html=1;arcSize=24;fillColor=#FFFFFF;strokeColor=default;shadow=0;comic=0;labelBackgroundColor=none;fontFamily=Verdana;fontSize=12;fontColor=#000000;align=center;" parent="1" vertex="1">
          <mxGeometry x="720" y="298" width="120" height="60" as="geometry" />
        </mxCell>
        <mxCell id="7Rwx5MBi2bmrYGt2QzQ_-10" style="edgeStyle=orthogonalEdgeStyle;rounded=0;orthogonalLoop=1;jettySize=auto;html=1;exitX=0.5;exitY=1;exitDx=0;exitDy=0;entryX=0.5;entryY=1;entryDx=0;entryDy=0;" parent="1" source="7Rwx5MBi2bmrYGt2QzQ_-6" target="7Rwx5MBi2bmrYGt2QzQ_-4" edge="1">
          <mxGeometry relative="1" as="geometry" />
        </mxCell>
        <mxCell id="7Rwx5MBi2bmrYGt2QzQ_-6" value="CreateAccountScreen" style="rounded=1;whiteSpace=wrap;html=1;arcSize=24;fillColor=#FFFFFF;strokeColor=default;shadow=0;comic=0;labelBackgroundColor=none;fontFamily=Verdana;fontSize=12;fontColor=#000000;align=center;" parent="1" vertex="1">
          <mxGeometry x="60" y="298" width="160" height="60" as="geometry" />
        </mxCell>
        <mxCell id="7Rwx5MBi2bmrYGt2QzQ_-18" value="Login exists &amp;amp; not verified" style="text;html=1;align=center;verticalAlign=middle;resizable=0;points=[];autosize=1;strokeColor=none;fillColor=none;" parent="1" vertex="1">
          <mxGeometry x="610" y="130" width="160" height="30" as="geometry" />
        </mxCell>
        <mxCell id="7Rwx5MBi2bmrYGt2QzQ_-19" value="&lt;div&gt;Login gets verified&lt;/div&gt;" style="text;html=1;align=center;verticalAlign=middle;resizable=0;points=[];autosize=1;strokeColor=none;fillColor=none;" parent="1" vertex="1">
          <mxGeometry x="500" y="380" width="120" height="30" as="geometry" />
        </mxCell>
        <mxCell id="7Rwx5MBi2bmrYGt2QzQ_-20" value="No user document exists" style="text;html=1;align=center;verticalAlign=middle;resizable=0;points=[];autosize=1;strokeColor=none;fillColor=none;" parent="1" vertex="1">
          <mxGeometry x="145" y="240" width="160" height="30" as="geometry" />
        </mxCell>
        <mxCell id="7Rwx5MBi2bmrYGt2QzQ_-21" value="User document created" style="text;html=1;align=center;verticalAlign=middle;resizable=0;points=[];autosize=1;strokeColor=none;fillColor=none;" parent="1" vertex="1">
          <mxGeometry x="165" y="380" width="150" height="30" as="geometry" />
        </mxCell>
        <mxCell id="7Rwx5MBi2bmrYGt2QzQ_-22" value="Login exists &amp;amp; verified" style="text;html=1;align=center;verticalAlign=middle;resizable=0;points=[];autosize=1;strokeColor=none;fillColor=none;" parent="1" vertex="1">
          <mxGeometry x="370" y="130" width="140" height="30" as="geometry" />
        </mxCell>
        <mxCell id="7Rwx5MBi2bmrYGt2QzQ_-23" value="Login created &amp;amp; not verified" style="text;html=1;align=center;verticalAlign=middle;resizable=0;points=[];autosize=1;strokeColor=none;fillColor=none;" parent="1" vertex="1">
          <mxGeometry x="590" y="240" width="170" height="30" as="geometry" />
        </mxCell>
        <mxCell id="7Rwx5MBi2bmrYGt2QzQ_-25" value="Login created &amp;amp; is verified" style="text;html=1;align=center;verticalAlign=middle;resizable=0;points=[];autosize=1;strokeColor=none;fillColor=none;" parent="1" vertex="1">
          <mxGeometry x="380" y="240" width="160" height="30" as="geometry" />
        </mxCell>
        <mxCell id="7Rwx5MBi2bmrYGt2QzQ_-26" value="No login exists" style="text;html=1;align=center;verticalAlign=middle;resizable=0;points=[];autosize=1;strokeColor=none;fillColor=none;" parent="1" vertex="1">
          <mxGeometry x="560" y="180" width="100" height="30" as="geometry" />
        </mxCell>
      </root>
    </mxGraphModel>
  </diagram>
</mxfile>
